<?xml version="1.0" encoding="utf-8"?>
<!-- Generator: Adobe Illustrator 24.0.2, SVG Export Plug-In . SVG Version: 6.00 Build 0)  -->
<svg version="1.1" id="Capa_1" xmlns="http://www.w3.org/2000/svg" xmlns:xlink="http://www.w3.org/1999/xlink" x="0px" y="0px"
	 viewBox="0 0 595.28 841.89" style="enable-background:new 0 0 595.28 841.89;" xml:space="preserve">
<style type="text/css">
	.st0{fill:#23B5D3;}
	.st1{fill:#3186BB;}
	.st2{fill:#441F77;}
	.st3{fill:#3A5C98;}
	.st4{fill:#2E8FB5;}
	.st5{fill:#678AB6;}
	.st6{fill:#5B9FC9;}
</style>
<g>
	<path class="st0" d="M385.2,271.67c-19.52-23.22-44.04-33.7-74.65-31.83c-22.17,1.35-44.51,0.94-66.73,0.03
		c-13.54-0.55-17.89,4.29-17.57,17.66c0.59,24.8-0.39,49.64-0.71,74.47c-66.66,40.27-106.77,100.17-128.56,173.76
		c-2.17,7.33-2.97,16.61-8.6,21.13c-8.91,7.16-7.89-2.06-8.4-7.44c0.06-126.22-0.03-252.37,0.1-378.51
		c0.01-9.37-1.46-18.88,1.49-28.12c2.32-0.97,4.67-2.84,6.97-2.77c88.92,2.5,177.87-7.24,266.75,0.19
		c41.41,3.46,77.91,18.79,107.4,48.96c7.78,7.95,16.62,15.53,12.59,28.72c-9.26,39.55-35.38,64.4-70.7,81.15
		C398.48,271.96,392.26,275.39,385.2,271.67z"/>
	<path class="st1" d="M505.46,239.96c17.59,42.65,29.97,86.75,24.05,133.12c-9.79,76.65-53.01,126.71-126.22,151.18
		c-42.58,14.23-87,20.06-130.6,29.61c-18.45,4.04-36.79,8.54-55.18,12.83c-14.39,14.37-34.62,18.32-51.2,28.82
		c-29.1,18.44-50.44,43.25-64.9,74.64c-4.24,9.2-4.47,22.7-18.7,24.84c4.93-141.35,97.07-240.3,198-260.86
		c45.66-9.3,88.53-26.83,126.78-54.41c49.74-35.86,81.71-82.55,88.62-144.67C501.68,231.97,502.9,237.26,505.46,239.96z"/>
	<path class="st2" d="M82.69,695.01c24.39-64.42,66.1-110.59,134.81-128.31c-0.03,36.82,1.16,73.68-0.34,110.43
		c-2.55,62.42-51.91,113.65-112.99,120.24c-16.17,1.74-25.9,0.18-24.2-20.31C82.23,749.81,81.91,722.36,82.69,695.01z"/>
	<path class="st3" d="M83.6,531.32c15.63-65.55,41.88-125.6,93.67-170.87c13.83-12.09,24.96-31.42,48.26-28.44
		c0.11,0.84,0.23,1.69,0.32,2.54c4.01,36.93,1.91,64.71-42.45,83.21c-56.59,23.6-83.41,77.59-96.47,136.87
		C73.12,548.67,80.61,539.67,83.6,531.32z"/>
	<path class="st4" d="M385.2,271.67c41.8-15.21,70.21-44.87,90.07-83.75c0.2,60.02-24.99,105.92-77.85,141.18
		C398.66,306.29,392.01,288.96,385.2,271.67z"/>
	<path class="st5" d="M83.6,531.32c0.74,7.82-3.26,16.32,3.32,23.31c-1.63,6.21-6.35,6.9-7.42,1.29
		c-1.74-9.12-0.47-18.81-0.47-28.27c-0.01-129.05-0.08-258.09,0.13-387.14c0.01-9.22-2.75-18.89,2.42-27.71
		C81.8,240.36,82,367.9,82.33,495.43C82.36,507.39,83.16,519.35,83.6,531.32z"/>
	<path class="st6" d="M505.46,239.96c-3.12-1.63-6.24-3.26-9.36-4.88c0.5-3.86,0.99-7.72,1.49-11.58
		C503.6,227.36,505.62,233.14,505.46,239.96z"/>
</g>
</svg>
